<?xml version="1.0" encoding="utf-8"?>
<!-- Generator: Adobe Illustrator 19.1.0, SVG Export Plug-In . SVG Version: 6.00 Build 0)  -->
<svg version="1.1" id="Layer_1" xmlns="http://www.w3.org/2000/svg" xmlns:xlink="http://www.w3.org/1999/xlink" x="0px" y="0px"
	 viewBox="-68 94 50 82" style="enable-background:new -68 94 50 82;" xml:space="preserve">
<path d="M-53,133v-22c0-5.5,4.5-10,10-10s10,4.5,10,10v22c0,5.5-4.5,10-10,10S-53,138.5-53,133z M-25,133c0-1.1-0.9-2-2-2
	s-2,0.9-2,2c0,7.7-6.3,14-14,14s-14-6.3-14-14c0-1.1-0.9-2-2-2s-2,0.9-2,2c0,9.2,7,16.9,16,17.9V161h-7c-1.1,0-2,0.9-2,2s0.9,2,2,2
	h18c1.1,0,2-0.9,2-2s-0.9-2-2-2h-7v-10.1C-32,149.9-25,142.2-25,133z"/>
</svg>
